<svg width="1000" height="500" viewBox="0 0 1000 500" fill="none" xmlns="http://www.w3.org/2000/svg">
<g clip-path="url(#clip0_1151_70)">
<path d="M1000 0H0V500H1000V0Z" fill="#DBEAFE"/>
<path fill-rule="evenodd" clip-rule="evenodd" d="M560.186 331.507V391.201C560.186 395.035 563.297 398.146 567.131 398.146H582.075C583.72 398.146 585.311 397.562 586.565 396.5C587.82 395.436 588.657 393.962 588.926 392.34L592.593 370.368H712.964L716.621 392.34C716.89 393.962 717.728 395.436 718.982 396.5C720.238 397.562 721.828 398.146 723.472 398.146H738.426C740.268 398.146 742.035 397.414 743.338 396.112C744.639 394.81 745.371 393.043 745.371 391.201V331.507C745.371 320.622 742.15 309.98 736.111 300.923L728.889 290.09C728.246 289.126 727.693 288.103 727.242 287.035H736.445C737.735 287.035 739 286.675 740.097 285.996C741.195 285.318 742.082 284.347 742.658 283.191L744.972 278.562C745.502 277.504 745.75 276.329 745.697 275.147C745.643 273.967 745.29 272.818 744.668 271.812C744.047 270.805 743.179 269.975 742.147 269.398C741.114 268.821 739.951 268.518 738.77 268.517H723.149L720.278 254.201C719.406 249.842 717.295 245.826 714.2 242.633C711.104 239.442 707.156 237.208 702.825 236.201C689.288 233.053 672.603 231.479 652.778 231.479C632.945 231.479 616.27 233.053 602.732 236.201C598.4 237.207 594.449 239.439 591.352 242.632C588.254 245.823 586.143 249.84 585.27 254.201L582.399 268.517H566.797C565.614 268.518 564.452 268.821 563.42 269.398C562.388 269.975 561.52 270.805 560.897 271.812C560.277 272.818 559.922 273.967 559.87 275.147C559.815 276.329 560.065 277.504 560.593 278.562L562.908 283.191C563.483 284.346 564.37 285.315 565.464 285.994C566.56 286.672 567.824 287.033 569.111 287.035H578.325C577.872 288.103 577.321 289.126 576.676 290.09L569.445 300.923C563.408 309.979 560.186 320.618 560.186 331.507ZM707.972 287.072C708.611 290.273 709.67 293.378 711.121 296.303H594.436C595.889 293.386 596.945 290.285 597.583 287.072L603.436 257.84C603.608 256.967 604.029 256.161 604.649 255.521C605.268 254.879 606.058 254.432 606.926 254.229C618.945 251.451 634.26 249.997 652.778 249.997C671.297 249.997 686.611 251.442 698.631 254.239C699.499 254.439 700.29 254.885 700.911 255.523C701.532 256.162 701.956 256.967 702.131 257.84L707.972 287.072ZM592.593 342.59C596.276 342.59 599.81 341.126 602.414 338.522C605.02 335.918 606.482 332.385 606.482 328.701C606.482 325.018 605.02 321.485 602.414 318.88C599.81 316.276 596.276 314.812 592.593 314.812C588.91 314.812 585.376 316.276 582.772 318.88C580.168 321.485 578.704 325.018 578.704 328.701C578.704 332.385 580.168 335.918 582.772 338.522C585.376 341.126 588.91 342.59 592.593 342.59ZM726.853 328.701C726.853 332.385 725.389 335.918 722.785 338.522C720.179 341.126 716.647 342.59 712.964 342.59C709.281 342.59 705.747 341.126 703.143 338.522C700.538 335.918 699.075 332.385 699.075 328.701C699.075 325.018 700.538 321.485 703.143 318.88C705.747 316.276 709.281 314.812 712.964 314.812C716.647 314.812 720.179 316.276 722.785 318.88C725.389 321.485 726.853 325.018 726.853 328.701Z" fill="#3B82F6"/>
<path d="M419.667 83.3335H268.888V416.667H342.221V310H419.667C502.76 310 534.96 244.193 534.96 189.867C534.96 135.82 502.76 83.3335 419.667 83.3335ZM399.581 243.334H342.221V143.333H399.581C433.667 143.333 464.034 150.853 464.034 193.247C464.027 235.9 433.667 243.334 399.581 243.334Z" fill="#3B82F6"/>
</g>
<defs>
<clipPath id="clip0_1151_70">
<rect width="1000" height="500" fill="white"/>
</clipPath>
</defs>
</svg>
