<svg width="500" height="500" viewBox="0 0 500 500" fill="none" xmlns="http://www.w3.org/2000/svg">
<g clip-path="url(#clip0_1151_63)">
<path d="M500 0H0V500H500V0Z" fill="#DBEAFE"/>
<mask id="mask0_1151_63" style="mask-type:luminance" maskUnits="userSpaceOnUse" x="83" y="83" width="334" height="334">
<path d="M416.667 83.3335H83.3335V416.667H416.667V83.3335Z" fill="white"/>
</mask>
<g mask="url(#mask0_1151_63)">
<path fill-rule="evenodd" clip-rule="evenodd" d="M359.377 383.334H140.636C128.863 383.334 120.169 371.717 124.61 361.034C145.213 311.634 193.615 283.334 249.997 283.334C306.396 283.334 354.799 311.634 375.403 361.034C379.843 371.717 371.149 383.334 359.377 383.334ZM181.945 183.334C181.945 146.567 212.483 116.667 249.997 116.667C287.529 116.667 318.05 146.567 318.05 183.334C318.05 220.1 287.529 250 249.997 250C212.483 250 181.945 220.1 181.945 183.334ZM415.928 377.267C403.56 321.284 364.871 279.965 313.95 261.215C340.933 239.932 356.671 205.515 350.886 167.832C344.183 124.116 307.06 89.1331 262.247 84.0331C200.388 76.9831 147.918 124.15 147.918 183.334C147.918 214.834 162.821 242.899 186.061 261.215C135.124 279.965 96.4529 321.284 84.0672 377.267C79.5757 397.617 96.3168 416.667 117.566 416.667H382.429C403.696 416.667 420.436 397.617 415.928 377.267Z" fill="#3B82F6"/>
</g>
</g>
<defs>
<clipPath id="clip0_1151_63">
<rect width="500" height="500" fill="white"/>
</clipPath>
</defs>
</svg>
