<svg width="500" height="500" viewBox="0 0 500 500" fill="none" xmlns="http://www.w3.org/2000/svg">
<rect width="500" height="500" fill="#DBEAFE"/>
<g clip-path="url(#clip0_1147_7)">
<path d="M249.998 91.7705C158.098 91.7705 83.3325 166.536 83.3325 258.437C83.3325 320.449 117.436 376.961 172.333 405.921L176.707 408.228H323.291L327.664 405.921C382.563 376.96 416.666 320.447 416.666 258.437C416.666 166.536 341.899 91.7705 249.998 91.7705ZM313.213 368.292H282.34L275.431 318.842C280.007 318.022 284.646 316.995 289.385 315.728C291.813 315.078 293.823 313.372 294.858 311.082C310.323 276.85 316.466 244.909 314.194 210.564C313.957 207.02 311.517 204.009 308.1 203.047C288.218 197.457 269.214 194.738 249.999 194.738C230.786 194.738 211.782 197.456 191.901 203.047C188.483 204.009 186.043 207.019 185.806 210.564C183.533 244.909 189.677 276.85 205.142 311.082C206.177 313.375 208.188 315.08 210.617 315.728C215.355 316.995 219.993 318.021 224.568 318.84L217.659 368.291H186.787C159.403 352.52 139.356 327.508 129.71 298.38C146.434 295.988 163.169 294.096 179.91 292.702C173.524 273.603 169.895 254.836 168.882 235.642C152.27 239.454 136.536 245.321 123.346 254.332C125.52 186.346 181.495 131.707 250 131.707C318.512 131.707 374.494 186.357 376.659 254.352C375.349 253.454 373.962 252.577 372.487 251.727C359.891 244.474 345.794 239.473 331.102 236.027C330.06 255.079 326.439 273.719 320.099 292.684C336.841 294.074 353.579 295.961 370.304 298.348C360.658 327.492 340.606 352.516 313.213 368.292Z" fill="#3B82F6"/>
</g>
<defs>
<clipPath id="clip0_1147_7">
<rect width="333.333" height="333.333" fill="white" transform="translate(83.3325 83.3325)"/>
</clipPath>
</defs>
</svg>
