<svg width="500" height="500" viewBox="0 0 500 500" fill="none" xmlns="http://www.w3.org/2000/svg">
<g clip-path="url(#clip0_1150_55)">
<path d="M500 0H0V500H500V0Z" fill="#DBEAFE"/>
<mask id="mask0_1150_55" style="mask-type:luminance" maskUnits="userSpaceOnUse" x="83" y="83" width="334" height="334">
<path d="M416.667 83.3335H83.3335V416.667H416.667V83.3335Z" fill="white"/>
</mask>
<g mask="url(#mask0_1150_55)">
<path d="M406.25 166.666C406.25 167.603 406.042 199.374 398.333 239.582C397.083 246.353 395.521 253.332 393.75 260.416C377.917 324.895 341.979 399.999 260.417 405.832C257.083 406.145 253.542 406.249 250 406.249C246.458 406.249 242.917 406.145 239.583 405.832C158.021 399.999 122.083 324.895 106.25 260.416C104.479 253.332 102.917 246.353 101.667 239.582C93.9583 199.374 93.75 167.603 93.75 166.666C93.75 162.499 96.25 158.749 100.104 157.082L239.583 97.2909L245.938 94.5825C248.542 93.4367 251.458 93.4367 254.062 94.5825L260.417 97.2909L399.896 157.082C403.75 158.749 406.25 162.499 406.25 166.666Z" fill="#3B82F6"/>
<path d="M398.33 239.582C397.08 246.353 395.518 253.332 393.747 260.416H260.414V405.832C257.08 406.145 253.539 406.249 249.997 406.249C246.455 406.249 242.914 406.145 239.58 405.832V260.416H106.247C104.477 253.332 102.914 246.353 101.664 239.582H239.58V97.2909L245.935 94.5825C248.539 93.4367 251.455 93.4367 254.06 94.5825L260.414 97.2909V239.582H398.33Z" fill="#DBEAFE"/>
</g>
</g>
<defs>
<clipPath id="clip0_1150_55">
<rect width="500" height="500" fill="white"/>
</clipPath>
</defs>
</svg>
