<svg width="500" height="500" viewBox="0 0 500 500" fill="none" xmlns="http://www.w3.org/2000/svg">
<g clip-path="url(#clip0_1150_52)">
<path d="M500 0H0V500H500V0Z" fill="#DBEAFE"/>
<path fill-rule="evenodd" clip-rule="evenodd" d="M111.109 288.93V378.472C111.109 384.222 115.775 388.889 121.525 388.889H143.942C146.409 388.889 148.796 388.014 150.678 386.419C152.56 384.825 153.815 382.614 154.22 380.18L159.72 347.222H340.275L345.761 380.18C346.165 382.614 347.421 384.825 349.303 386.419C351.185 388.014 353.572 388.889 356.039 388.889H378.47C381.232 388.889 383.882 387.791 385.835 385.837C387.789 383.885 388.886 381.235 388.886 378.472V288.93C388.888 272.603 384.054 256.64 374.997 243.055L364.164 226.805C363.199 225.358 362.371 223.823 361.692 222.222H375.497C377.434 222.222 379.331 221.683 380.977 220.665C382.622 219.647 383.953 218.19 384.817 216.458L388.289 209.514C389.082 207.926 389.456 206.164 389.375 204.391C389.296 202.619 388.764 200.897 387.832 199.387C386.9 197.879 385.599 196.632 384.05 195.768C382.502 194.903 380.757 194.447 378.984 194.444H355.553L351.247 172.972C349.938 166.433 346.772 160.408 342.129 155.621C337.486 150.833 331.563 147.483 325.067 145.972C304.761 141.25 279.734 138.889 249.997 138.889C220.247 138.889 195.234 141.25 174.928 145.972C168.429 147.48 162.503 150.829 157.857 155.618C153.213 160.405 150.045 166.43 148.734 172.972L144.428 194.444H121.025C119.252 194.447 117.508 194.903 115.959 195.768C114.411 196.632 113.109 197.879 112.177 199.387C111.245 200.897 110.714 202.619 110.634 204.391C110.554 206.164 110.928 207.926 111.72 209.514L115.192 216.458C116.056 218.187 117.383 219.643 119.027 220.661C120.67 221.679 122.564 222.219 124.498 222.222H138.317C137.639 223.823 136.811 225.358 135.845 226.805L124.998 243.055C115.942 256.639 111.109 272.597 111.109 288.93ZM332.789 222.278C333.746 227.082 335.334 231.737 337.511 236.125H162.484C164.664 231.75 166.247 227.097 167.206 222.278L175.984 178.43C176.243 177.119 176.875 175.911 177.803 174.95C178.732 173.99 179.918 173.316 181.22 173.014C199.247 168.847 222.22 166.666 249.997 166.666C277.775 166.666 300.747 168.833 318.775 173.028C320.078 173.328 321.265 173.997 322.197 174.955C323.128 175.914 323.763 177.121 324.025 178.43L332.789 222.278ZM159.72 305.555C165.245 305.555 170.545 303.361 174.452 299.454C178.359 295.547 180.553 290.247 180.553 284.722C180.553 279.197 178.359 273.897 174.452 269.99C170.545 266.083 165.245 263.889 159.72 263.889C154.195 263.889 148.896 266.083 144.989 269.99C141.082 273.897 138.887 279.197 138.887 284.722C138.887 290.247 141.082 295.547 144.989 299.454C148.896 303.361 154.195 305.555 159.72 305.555ZM361.109 284.722C361.109 290.247 358.914 295.547 355.007 299.454C351.1 303.361 345.8 305.555 340.275 305.555C334.75 305.555 329.452 303.361 325.545 299.454C321.638 295.547 319.442 290.247 319.442 284.722C319.442 279.197 321.638 273.897 325.545 269.99C329.452 266.083 334.75 263.889 340.275 263.889C345.8 263.889 351.1 266.083 355.007 269.99C358.914 273.897 361.109 279.197 361.109 284.722Z" fill="#3B82F6"/>
</g>
<defs>
<clipPath id="clip0_1150_52">
<rect width="500" height="500" fill="white"/>
</clipPath>
</defs>
</svg>
